<mxfile host="app.diagrams.net" modified="2023-01-24T18:17:28.954Z" agent="5.0 (Windows NT 10.0; Win64; x64) AppleWebKit/537.36 (KHTML, like Gecko) Chrome/108.0.0.0 Safari/537.36" etag="l46c_7uf4y70STM8_mBX" version="20.8.11" type="github">
  <diagram id="C5RBs43oDa-KdzZeNtuy" name="Page-1">
    <mxGraphModel dx="2067" dy="549" grid="1" gridSize="10" guides="1" tooltips="1" connect="1" arrows="1" fold="1" page="1" pageScale="1" pageWidth="827" pageHeight="1169" math="0" shadow="0">
      <root>
        <mxCell id="WIyWlLk6GJQsqaUBKTNV-0" />
        <mxCell id="WIyWlLk6GJQsqaUBKTNV-1" parent="WIyWlLk6GJQsqaUBKTNV-0" />
        <mxCell id="potG2WrgUDK1nlspSH43-2" value="" style="edgeStyle=orthogonalEdgeStyle;rounded=0;orthogonalLoop=1;jettySize=auto;html=1;" edge="1" parent="WIyWlLk6GJQsqaUBKTNV-1" source="WIyWlLk6GJQsqaUBKTNV-3" target="potG2WrgUDK1nlspSH43-1">
          <mxGeometry relative="1" as="geometry" />
        </mxCell>
        <mxCell id="WIyWlLk6GJQsqaUBKTNV-3" value="parse_new_records" style="rounded=1;whiteSpace=wrap;html=1;fontSize=12;glass=0;strokeWidth=1;shadow=0;fillColor=#d5e8d4;strokeColor=#82b366;" parent="WIyWlLk6GJQsqaUBKTNV-1" vertex="1">
          <mxGeometry x="320" y="290" width="120" height="30" as="geometry" />
        </mxCell>
        <mxCell id="4Sw3aIR59aRq2CPispGW-28" style="edgeStyle=orthogonalEdgeStyle;rounded=0;orthogonalLoop=1;jettySize=auto;html=1;exitX=0.5;exitY=1;exitDx=0;exitDy=0;entryX=0.5;entryY=0;entryDx=0;entryDy=0;" parent="WIyWlLk6GJQsqaUBKTNV-1" source="WIyWlLk6GJQsqaUBKTNV-6" target="WIyWlLk6GJQsqaUBKTNV-10" edge="1">
          <mxGeometry relative="1" as="geometry" />
        </mxCell>
        <mxCell id="WIyWlLk6GJQsqaUBKTNV-6" value="Google" style="rhombus;whiteSpace=wrap;html=1;shadow=0;fontFamily=Helvetica;fontSize=12;align=center;strokeWidth=1;spacing=6;spacingTop=-4;fillColor=#f8cecc;strokeColor=#b85450;" parent="WIyWlLk6GJQsqaUBKTNV-1" vertex="1">
          <mxGeometry x="170" y="480" width="100" height="80" as="geometry" />
        </mxCell>
        <mxCell id="4Sw3aIR59aRq2CPispGW-35" value="" style="edgeStyle=orthogonalEdgeStyle;rounded=0;orthogonalLoop=1;jettySize=auto;html=1;" parent="WIyWlLk6GJQsqaUBKTNV-1" source="WIyWlLk6GJQsqaUBKTNV-10" target="WIyWlLk6GJQsqaUBKTNV-11" edge="1">
          <mxGeometry relative="1" as="geometry" />
        </mxCell>
        <mxCell id="WIyWlLk6GJQsqaUBKTNV-10" value="DROP geocoding table;&lt;br&gt;CREATE GEOCODING TABLE AS ...." style="rhombus;whiteSpace=wrap;html=1;shadow=0;fontFamily=Helvetica;fontSize=12;align=center;strokeWidth=1;spacing=6;spacingTop=-4;fillColor=#d5e8d4;strokeColor=#82b366;" parent="WIyWlLk6GJQsqaUBKTNV-1" vertex="1">
          <mxGeometry x="230" y="640" width="300" height="130" as="geometry" />
        </mxCell>
        <mxCell id="4Sw3aIR59aRq2CPispGW-39" value="" style="edgeStyle=orthogonalEdgeStyle;rounded=0;orthogonalLoop=1;jettySize=auto;html=1;entryX=0.5;entryY=0;entryDx=0;entryDy=0;" parent="WIyWlLk6GJQsqaUBKTNV-1" source="WIyWlLk6GJQsqaUBKTNV-11" target="4Sw3aIR59aRq2CPispGW-37" edge="1">
          <mxGeometry relative="1" as="geometry">
            <mxPoint x="520" y="690" as="targetPoint" />
          </mxGeometry>
        </mxCell>
        <mxCell id="4Sw3aIR59aRq2CPispGW-43" value="" style="edgeStyle=orthogonalEdgeStyle;rounded=0;orthogonalLoop=1;jettySize=auto;html=1;entryX=0.5;entryY=0;entryDx=0;entryDy=0;" parent="WIyWlLk6GJQsqaUBKTNV-1" source="WIyWlLk6GJQsqaUBKTNV-11" target="4Sw3aIR59aRq2CPispGW-36" edge="1">
          <mxGeometry relative="1" as="geometry">
            <mxPoint x="240" y="690" as="targetPoint" />
          </mxGeometry>
        </mxCell>
        <mxCell id="WIyWlLk6GJQsqaUBKTNV-11" value="Begin spatial joins" style="rounded=1;whiteSpace=wrap;html=1;fontSize=12;glass=0;strokeWidth=1;shadow=0;fillColor=#dae8fc;strokeColor=#6c8ebf;" parent="WIyWlLk6GJQsqaUBKTNV-1" vertex="1">
          <mxGeometry x="320" y="800" width="120" height="40" as="geometry" />
        </mxCell>
        <mxCell id="4Sw3aIR59aRq2CPispGW-34" value="" style="edgeStyle=orthogonalEdgeStyle;rounded=0;orthogonalLoop=1;jettySize=auto;html=1;" parent="WIyWlLk6GJQsqaUBKTNV-1" source="4Sw3aIR59aRq2CPispGW-0" target="WIyWlLk6GJQsqaUBKTNV-10" edge="1">
          <mxGeometry relative="1" as="geometry" />
        </mxCell>
        <mxCell id="4Sw3aIR59aRq2CPispGW-0" value="ESRI" style="rhombus;whiteSpace=wrap;html=1;shadow=0;fontFamily=Helvetica;fontSize=12;align=center;strokeWidth=1;spacing=6;spacingTop=-4;fillColor=#e1d5e7;strokeColor=#9673a6;" parent="WIyWlLk6GJQsqaUBKTNV-1" vertex="1">
          <mxGeometry x="490" y="480" width="100" height="80" as="geometry" />
        </mxCell>
        <mxCell id="4Sw3aIR59aRq2CPispGW-32" style="edgeStyle=orthogonalEdgeStyle;rounded=0;orthogonalLoop=1;jettySize=auto;html=1;entryX=0.5;entryY=0;entryDx=0;entryDy=0;" parent="WIyWlLk6GJQsqaUBKTNV-1" source="4Sw3aIR59aRq2CPispGW-8" target="4Sw3aIR59aRq2CPispGW-11" edge="1">
          <mxGeometry relative="1" as="geometry" />
        </mxCell>
        <mxCell id="4Sw3aIR59aRq2CPispGW-8" value="Finish snowflake pull" style="rounded=1;whiteSpace=wrap;html=1;fontSize=12;glass=0;strokeWidth=1;shadow=0;fillColor=#dae8fc;strokeColor=#6c8ebf;" parent="WIyWlLk6GJQsqaUBKTNV-1" vertex="1">
          <mxGeometry x="320" y="10" width="120" height="30" as="geometry" />
        </mxCell>
        <mxCell id="4Sw3aIR59aRq2CPispGW-33" value="" style="edgeStyle=orthogonalEdgeStyle;rounded=0;orthogonalLoop=1;jettySize=auto;html=1;" parent="WIyWlLk6GJQsqaUBKTNV-1" source="4Sw3aIR59aRq2CPispGW-11" target="4Sw3aIR59aRq2CPispGW-15" edge="1">
          <mxGeometry relative="1" as="geometry" />
        </mxCell>
        <mxCell id="4Sw3aIR59aRq2CPispGW-11" value="Recreate most_recent_vax" style="rounded=1;whiteSpace=wrap;html=1;fontSize=12;glass=0;strokeWidth=1;shadow=0;fillColor=#dae8fc;strokeColor=#6c8ebf;" parent="WIyWlLk6GJQsqaUBKTNV-1" vertex="1">
          <mxGeometry x="320" y="100" width="120" height="40" as="geometry" />
        </mxCell>
        <mxCell id="4Sw3aIR59aRq2CPispGW-30" style="edgeStyle=orthogonalEdgeStyle;rounded=0;orthogonalLoop=1;jettySize=auto;html=1;exitX=0.5;exitY=1;exitDx=0;exitDy=0;entryX=0.5;entryY=0;entryDx=0;entryDy=0;" parent="WIyWlLk6GJQsqaUBKTNV-1" source="4Sw3aIR59aRq2CPispGW-15" target="WIyWlLk6GJQsqaUBKTNV-3" edge="1">
          <mxGeometry relative="1" as="geometry" />
        </mxCell>
        <mxCell id="4Sw3aIR59aRq2CPispGW-15" value="Insert new records into master_address" style="rounded=1;whiteSpace=wrap;html=1;fontSize=12;glass=0;strokeWidth=1;shadow=0;fillColor=#dae8fc;strokeColor=#6c8ebf;" parent="WIyWlLk6GJQsqaUBKTNV-1" vertex="1">
          <mxGeometry x="320" y="200" width="120" height="40" as="geometry" />
        </mxCell>
        <mxCell id="4Sw3aIR59aRq2CPispGW-16" value="No geocoded information" style="rounded=0;whiteSpace=wrap;html=1;" parent="WIyWlLk6GJQsqaUBKTNV-1" vertex="1">
          <mxGeometry x="460" y="205" width="160" height="30" as="geometry" />
        </mxCell>
        <mxCell id="4Sw3aIR59aRq2CPispGW-49" value="" style="edgeStyle=orthogonalEdgeStyle;rounded=0;orthogonalLoop=1;jettySize=auto;html=1;fontSize=12;" parent="WIyWlLk6GJQsqaUBKTNV-1" source="4Sw3aIR59aRq2CPispGW-36" target="4Sw3aIR59aRq2CPispGW-48" edge="1">
          <mxGeometry relative="1" as="geometry" />
        </mxCell>
        <mxCell id="4Sw3aIR59aRq2CPispGW-36" value="Google" style="rhombus;whiteSpace=wrap;html=1;shadow=0;fontFamily=Helvetica;fontSize=12;align=center;strokeWidth=1;spacing=6;spacingTop=-4;fillColor=#f8cecc;strokeColor=#b85450;" parent="WIyWlLk6GJQsqaUBKTNV-1" vertex="1">
          <mxGeometry x="180" y="875" width="100" height="80" as="geometry" />
        </mxCell>
        <mxCell id="4Sw3aIR59aRq2CPispGW-51" value="" style="edgeStyle=orthogonalEdgeStyle;rounded=0;orthogonalLoop=1;jettySize=auto;html=1;fontSize=12;" parent="WIyWlLk6GJQsqaUBKTNV-1" source="4Sw3aIR59aRq2CPispGW-37" target="4Sw3aIR59aRq2CPispGW-50" edge="1">
          <mxGeometry relative="1" as="geometry" />
        </mxCell>
        <mxCell id="4Sw3aIR59aRq2CPispGW-37" value="ESRI" style="rhombus;whiteSpace=wrap;html=1;shadow=0;fontFamily=Helvetica;fontSize=12;align=center;strokeWidth=1;spacing=6;spacingTop=-4;fillColor=#e1d5e7;strokeColor=#9673a6;" parent="WIyWlLk6GJQsqaUBKTNV-1" vertex="1">
          <mxGeometry x="470" y="870" width="100" height="80" as="geometry" />
        </mxCell>
        <mxCell id="4Sw3aIR59aRq2CPispGW-44" value="&lt;font style=&quot;font-size: 10px;&quot;&gt;Fields:&lt;br&gt;&lt;/font&gt;&lt;div style=&quot;text-align: left; font-size: 10px;&quot;&gt;&lt;font style=&quot;font-size: 10px;&quot;&gt;&quot;RECIP_ADDRESS_STREET&quot;,&lt;/font&gt;&lt;/div&gt;&lt;div style=&quot;text-align: left; font-size: 10px;&quot;&gt;&lt;font style=&quot;font-size: 10px;&quot;&gt;&quot;RECIP_ADDRESS_STREET_2&quot;,&lt;/font&gt;&lt;/div&gt;&lt;div style=&quot;text-align: left; font-size: 10px;&quot;&gt;&lt;font style=&quot;font-size: 10px;&quot;&gt;&quot;RECIP_ADDRESS_CITY&quot;,&lt;/font&gt;&lt;/div&gt;&lt;div style=&quot;text-align: left; font-size: 10px;&quot;&gt;&lt;font style=&quot;font-size: 10px;&quot;&gt;&quot;RECIP_ADDRESS_STATE&quot;,&lt;/font&gt;&lt;/div&gt;&lt;div style=&quot;text-align: left; font-size: 10px;&quot;&gt;&lt;font style=&quot;font-size: 10px;&quot;&gt;&quot;RECIP_ADDRESS_ZIP&quot;,&lt;/font&gt;&lt;/div&gt;&lt;div style=&quot;text-align: left; font-size: 10px;&quot;&gt;&lt;font style=&quot;font-size: 10px;&quot;&gt;&quot;STREET_ADDRESS_PARSED&quot;,&lt;/font&gt;&lt;/div&gt;&lt;div style=&quot;text-align: left; font-size: 10px;&quot;&gt;&lt;font style=&quot;font-size: 10px;&quot;&gt;&quot;PK_ADDRESS_ID&quot;&lt;/font&gt;&lt;/div&gt;" style="text;html=1;align=center;verticalAlign=middle;resizable=0;points=[];autosize=1;strokeColor=none;fillColor=none;" parent="WIyWlLk6GJQsqaUBKTNV-1" vertex="1">
          <mxGeometry x="-335" y="250" width="180" height="110" as="geometry" />
        </mxCell>
        <mxCell id="4Sw3aIR59aRq2CPispGW-45" value="&lt;font style=&quot;font-size: 10px;&quot;&gt;Fields:&lt;br&gt;&lt;/font&gt;&lt;div style=&quot;text-align: left; font-size: 10px;&quot;&gt;&lt;font style=&quot;font-size: 10px;&quot;&gt;&quot;RECIP_ADDRESS_STREET&quot;,&lt;/font&gt;&lt;/div&gt;&lt;div style=&quot;text-align: left; font-size: 10px;&quot;&gt;&lt;font style=&quot;font-size: 10px;&quot;&gt;&quot;RECIP_ADDRESS_STREET_2&quot;,&lt;/font&gt;&lt;/div&gt;&lt;div style=&quot;text-align: left; font-size: 10px;&quot;&gt;&lt;font style=&quot;font-size: 10px;&quot;&gt;&quot;RECIP_ADDRESS_CITY&quot;,&lt;/font&gt;&lt;/div&gt;&lt;div style=&quot;text-align: left; font-size: 10px;&quot;&gt;&lt;font style=&quot;font-size: 10px;&quot;&gt;&quot;RECIP_ADDRESS_STATE&quot;,&lt;/font&gt;&lt;/div&gt;&lt;div style=&quot;text-align: left; font-size: 10px;&quot;&gt;&lt;font style=&quot;font-size: 10px;&quot;&gt;&quot;RECIP_ADDRESS_ZIP&quot;,&lt;/font&gt;&lt;/div&gt;&lt;div style=&quot;text-align: left; font-size: 10px;&quot;&gt;&lt;font style=&quot;font-size: 10px;&quot;&gt;&quot;STREET_ADDRESS_PARSED&quot;,&lt;/font&gt;&lt;/div&gt;&lt;div style=&quot;text-align: left; font-size: 10px;&quot;&gt;&lt;font style=&quot;font-size: 10px;&quot;&gt;&quot;PK_ADDRESS_ID&quot;&lt;/font&gt;&lt;/div&gt;&lt;div style=&quot;text-align: left;&quot;&gt;&lt;font style=&quot;&quot;&gt;&lt;div style=&quot;font-size: 10px;&quot;&gt;&quot;GEOCODE_SOURCE&quot;,&lt;/div&gt;&lt;div style=&quot;font-size: 10px;&quot;&gt;&quot;LATITUDE&quot;,&lt;/div&gt;&lt;div style=&quot;font-size: 10px;&quot;&gt;&quot;LONGITUDE&quot;,&lt;/div&gt;&lt;div style=&quot;font-size: 10px;&quot;&gt;&quot;GEOCODE_UPDATE_DATE&quot;,&lt;/div&gt;&lt;div style=&quot;font-size: 10px;&quot;&gt;&quot;LOCATION_TYPE&quot;,&lt;/div&gt;&lt;div style=&quot;&quot;&gt;&lt;span style=&quot;font-size: 10px;&quot;&gt;&amp;lt;&lt;/span&gt;&lt;b style=&quot;&quot;&gt;&lt;u style=&quot;&quot;&gt;&lt;font color=&quot;#0000ff&quot; style=&quot;font-size: 12px;&quot;&gt;geocode_specific_cols&lt;/font&gt;&lt;/u&gt;&lt;/b&gt;&lt;span style=&quot;font-size: 10px;&quot;&gt;&amp;gt;&lt;/span&gt;&lt;/div&gt;&lt;div style=&quot;font-size: 10px;&quot;&gt;&lt;br&gt;&lt;/div&gt;&lt;/font&gt;&lt;/div&gt;" style="text;html=1;align=center;verticalAlign=middle;resizable=0;points=[];autosize=1;strokeColor=none;fillColor=none;" parent="WIyWlLk6GJQsqaUBKTNV-1" vertex="1">
          <mxGeometry x="-350" y="430" width="180" height="200" as="geometry" />
        </mxCell>
        <mxCell id="4Sw3aIR59aRq2CPispGW-68" value="" style="edgeStyle=orthogonalEdgeStyle;rounded=0;orthogonalLoop=1;jettySize=auto;html=1;fontSize=20;fontColor=#000000;" parent="WIyWlLk6GJQsqaUBKTNV-1" source="4Sw3aIR59aRq2CPispGW-48" target="4Sw3aIR59aRq2CPispGW-67" edge="1">
          <mxGeometry relative="1" as="geometry">
            <Array as="points">
              <mxPoint x="230" y="1210" />
            </Array>
          </mxGeometry>
        </mxCell>
        <mxCell id="4Sw3aIR59aRq2CPispGW-48" value="INSERT SPATIAL JOINS INTO ADDRESS_SPATIAL" style="whiteSpace=wrap;html=1;fillColor=#f8cecc;strokeColor=#b85450;shadow=0;strokeWidth=1;spacing=6;spacingTop=-4;" parent="WIyWlLk6GJQsqaUBKTNV-1" vertex="1">
          <mxGeometry x="160" y="1030" width="140" height="60" as="geometry" />
        </mxCell>
        <mxCell id="4Sw3aIR59aRq2CPispGW-70" value="" style="edgeStyle=orthogonalEdgeStyle;rounded=0;orthogonalLoop=1;jettySize=auto;html=1;fontSize=20;fontColor=#000000;" parent="WIyWlLk6GJQsqaUBKTNV-1" source="4Sw3aIR59aRq2CPispGW-50" target="4Sw3aIR59aRq2CPispGW-69" edge="1">
          <mxGeometry relative="1" as="geometry" />
        </mxCell>
        <mxCell id="4Sw3aIR59aRq2CPispGW-50" value="INSERT SPATIAL JOINS INTO ESRI_ADDRESS_SPATIAL" style="whiteSpace=wrap;html=1;fillColor=#e1d5e7;strokeColor=#9673a6;shadow=0;strokeWidth=1;spacing=6;spacingTop=-4;" parent="WIyWlLk6GJQsqaUBKTNV-1" vertex="1">
          <mxGeometry x="440" y="1030" width="160" height="60" as="geometry" />
        </mxCell>
        <mxCell id="4Sw3aIR59aRq2CPispGW-52" value="&lt;font style=&quot;font-size: 10px;&quot;&gt;Fields:&lt;br&gt;&lt;/font&gt;&lt;div style=&quot;text-align: left;&quot;&gt;&lt;div&gt;&quot;RECIP_ID&quot;,&lt;/div&gt;&lt;div&gt;&quot;VAX_EVENT_ID&quot;,&lt;/div&gt;&lt;div&gt;&quot;BRIDGE_RECIP_ID&quot;,&lt;/div&gt;&lt;div&gt;&quot;ADMIN_DATE&quot;,&lt;/div&gt;&lt;div&gt;&quot;PK_ADDRESS_ID&quot;,&lt;/div&gt;&lt;div&gt;&quot;RECIP_ADDRESS_STREET&quot;,&lt;/div&gt;&lt;div&gt;&quot;RECIP_ADDRESS_STREET_2&quot;,&lt;/div&gt;&lt;div&gt;&quot;RECIP_ADDRESS_CITY&quot;,&lt;/div&gt;&lt;div&gt;&quot;RECIP_ADDRESS_STATE&quot;,&lt;/div&gt;&lt;div&gt;&quot;RECIP_ADDRESS_ZIP&quot;,&lt;/div&gt;&lt;div&gt;&quot;STREET_ADDRESS_PARSED&quot;,&lt;/div&gt;&lt;div&gt;&quot;GEOCODE_SOURCE&quot;,&lt;/div&gt;&lt;div&gt;&quot;LATITUDE&quot;,&lt;/div&gt;&lt;div&gt;&quot;LONGITUDE&quot;,&lt;/div&gt;&lt;div&gt;&quot;GEOCODE_UPDATE_DATE&quot;,&lt;/div&gt;&lt;div&gt;&quot;LOCATION_TYPE&quot;,&lt;/div&gt;&lt;div&gt;&lt;span style=&quot;background-color: initial;&quot;&gt;&amp;lt;&lt;b&gt;&lt;u style=&quot;&quot;&gt;&lt;font style=&quot;font-size: 12px;&quot; color=&quot;#0000ff&quot;&gt;geocode_specific_cols&lt;/font&gt;&lt;/u&gt;&lt;/b&gt;&amp;gt;&lt;/span&gt;,&lt;/div&gt;&lt;div&gt;&quot;DISTRICT&quot;,&lt;/div&gt;&lt;div&gt;&quot;LABEL&quot;,&lt;/div&gt;&lt;div&gt;&quot;SUP_DIST_11&quot;,&lt;/div&gt;&lt;div&gt;&quot;SUP_DIST_21&quot;,&lt;/div&gt;&lt;div&gt;&quot;SPA_2012&quot;,&lt;/div&gt;&lt;div&gt;&quot;HD_NAME&quot;,&lt;/div&gt;&lt;div&gt;&quot;CT10&quot;,&lt;/div&gt;&lt;div&gt;&quot;ZipCdVt&quot;,&lt;/div&gt;&lt;div&gt;&quot;HPIPlus_contemp&quot;,&lt;/div&gt;&lt;div&gt;&quot;HPIPlus_previous&quot;,&lt;/div&gt;&lt;div&gt;&quot;CDPH_Quartile_contemp&quot;,&lt;/div&gt;&lt;div&gt;&quot;CDPH_Quartile_previous&quot;,&lt;/div&gt;&lt;div&gt;&quot;below_pov_percent&quot;,&lt;/div&gt;&lt;div&gt;&quot;area_poverty_cat_four&quot;&lt;/div&gt;&lt;/div&gt;&lt;div style=&quot;text-align: left; font-size: 10px;&quot;&gt;&lt;font style=&quot;font-size: 10px;&quot;&gt;&lt;div&gt;&lt;br&gt;&lt;/div&gt;&lt;/font&gt;&lt;/div&gt;" style="text;html=1;align=center;verticalAlign=middle;resizable=0;points=[];autosize=1;strokeColor=none;fillColor=none;" parent="WIyWlLk6GJQsqaUBKTNV-1" vertex="1">
          <mxGeometry x="-110" y="1270" width="200" height="490" as="geometry" />
        </mxCell>
        <mxCell id="4Sw3aIR59aRq2CPispGW-59" value="&lt;font color=&quot;#000000&quot;&gt;MASTER_ADDRESS&lt;/font&gt;" style="rounded=1;whiteSpace=wrap;html=1;fontSize=20;fillColor=#e6d0de;gradientColor=#d5739d;strokeColor=#996185;" parent="WIyWlLk6GJQsqaUBKTNV-1" vertex="1">
          <mxGeometry x="-110" y="280" width="230" height="60" as="geometry" />
        </mxCell>
        <mxCell id="4Sw3aIR59aRq2CPispGW-60" value="&lt;font color=&quot;#000000&quot;&gt;GEOCODING&lt;/font&gt;" style="rounded=1;whiteSpace=wrap;html=1;fontSize=20;fillColor=#e6d0de;gradientColor=#d5739d;strokeColor=#996185;" parent="WIyWlLk6GJQsqaUBKTNV-1" vertex="1">
          <mxGeometry x="-125" y="480" width="230" height="60" as="geometry" />
        </mxCell>
        <mxCell id="4Sw3aIR59aRq2CPispGW-61" value="&lt;font style=&quot;font-size: 10px;&quot;&gt;Fields:&lt;br&gt;&lt;/font&gt;&lt;div style=&quot;text-align: left;&quot;&gt;&lt;div&gt;&lt;span style=&quot;background-color: initial;&quot;&gt;&quot;PK_ADDRESS_ID&quot;,&lt;/span&gt;&lt;br&gt;&lt;/div&gt;&lt;div&gt;&quot;RECIP_ADDRESS_STREET&quot;,&lt;/div&gt;&lt;div&gt;&quot;RECIP_ADDRESS_STREET_2&quot;,&lt;/div&gt;&lt;div&gt;&quot;RECIP_ADDRESS_CITY&quot;,&lt;/div&gt;&lt;div&gt;&quot;RECIP_ADDRESS_STATE&quot;,&lt;/div&gt;&lt;div&gt;&quot;RECIP_ADDRESS_ZIP&quot;,&lt;/div&gt;&lt;div&gt;&quot;STREET_ADDRESS_PARSED&quot;,&lt;/div&gt;&lt;div&gt;&quot;GEOCODE_SOURCE&quot;,&lt;/div&gt;&lt;div&gt;&quot;LATITUDE&quot;,&lt;/div&gt;&lt;div&gt;&quot;LONGITUDE&quot;,&lt;/div&gt;&lt;div&gt;&quot;GEOCODE_UPDATE_DATE&quot;,&lt;/div&gt;&lt;div&gt;&quot;LOCATION_TYPE&quot;,&lt;/div&gt;&lt;div&gt;&lt;span style=&quot;background-color: initial;&quot;&gt;&amp;lt;&lt;b&gt;&lt;u style=&quot;&quot;&gt;&lt;font style=&quot;font-size: 12px;&quot; color=&quot;#0000ff&quot;&gt;geocode_specific_cols&lt;/font&gt;&lt;/u&gt;&lt;/b&gt;&amp;gt;&lt;/span&gt;,&lt;/div&gt;&lt;div&gt;&quot;DISTRICT&quot;,&lt;/div&gt;&lt;div&gt;&quot;LABEL&quot;,&lt;/div&gt;&lt;div&gt;&quot;SUP_DIST_11&quot;,&lt;/div&gt;&lt;div&gt;&quot;SUP_DIST_21&quot;,&lt;/div&gt;&lt;div&gt;&quot;SPA_2012&quot;,&lt;/div&gt;&lt;div&gt;&quot;HD_NAME&quot;,&lt;/div&gt;&lt;div&gt;&quot;CT10&quot;,&lt;/div&gt;&lt;div&gt;&quot;ZipCdVt&quot;,&lt;/div&gt;&lt;div&gt;&quot;HPIPlus_contemp&quot;,&lt;/div&gt;&lt;div&gt;&quot;HPIPlus_previous&quot;,&lt;/div&gt;&lt;div&gt;&quot;CDPH_Quartile_contemp&quot;,&lt;/div&gt;&lt;div&gt;&quot;CDPH_Quartile_previous&quot;,&lt;/div&gt;&lt;div&gt;&quot;below_pov_percent&quot;,&lt;/div&gt;&lt;div&gt;&quot;area_poverty_cat_four&quot;&lt;/div&gt;&lt;/div&gt;&lt;div style=&quot;text-align: left; font-size: 10px;&quot;&gt;&lt;font style=&quot;font-size: 10px;&quot;&gt;&lt;div&gt;&lt;br&gt;&lt;/div&gt;&lt;/font&gt;&lt;/div&gt;" style="text;html=1;align=center;verticalAlign=middle;resizable=0;points=[];autosize=1;strokeColor=none;fillColor=none;" parent="WIyWlLk6GJQsqaUBKTNV-1" vertex="1">
          <mxGeometry x="-100" y="700" width="200" height="430" as="geometry" />
        </mxCell>
        <mxCell id="4Sw3aIR59aRq2CPispGW-62" value="&lt;font color=&quot;#000000&quot;&gt;&amp;lt;geo&amp;gt;_ADDRESS_SPATIAL&lt;/font&gt;" style="rounded=1;whiteSpace=wrap;html=1;fontSize=20;fillColor=#e6d0de;gradientColor=#d5739d;strokeColor=#996185;" parent="WIyWlLk6GJQsqaUBKTNV-1" vertex="1">
          <mxGeometry x="-410" y="780" width="280" height="60" as="geometry" />
        </mxCell>
        <mxCell id="4Sw3aIR59aRq2CPispGW-63" value="&lt;font color=&quot;#000000&quot;&gt;&amp;lt;geo&amp;gt;_MASTER_VACCINE&lt;/font&gt;" style="rounded=1;whiteSpace=wrap;html=1;fontSize=20;fillColor=#e6d0de;gradientColor=#d5739d;strokeColor=#996185;" parent="WIyWlLk6GJQsqaUBKTNV-1" vertex="1">
          <mxGeometry x="-435" y="1475" width="280" height="60" as="geometry" />
        </mxCell>
        <mxCell id="4Sw3aIR59aRq2CPispGW-64" value="&lt;font style=&quot;font-size: 10px;&quot;&gt;Fields:&lt;br&gt;&lt;/font&gt;&lt;div style=&quot;text-align: left; font-size: 10px;&quot;&gt;&lt;div&gt;&amp;nbsp; &amp;nbsp; &quot;VAX_EVENT_ID&quot;,&lt;/div&gt;&lt;div&gt;&amp;nbsp; &amp;nbsp; &quot;RECIP_ID&quot;,&lt;/div&gt;&lt;div&gt;&amp;nbsp; &amp;nbsp; &quot;RIGHT_RECIP_ID&quot;,&lt;/div&gt;&lt;div&gt;&amp;nbsp; &amp;nbsp; &quot;PK_ADDRESS_ID&quot;,&lt;/div&gt;&lt;div&gt;&amp;nbsp; &amp;nbsp; &quot;ADDRESSES&quot;,&lt;/div&gt;&lt;div&gt;&amp;nbsp; &amp;nbsp; &quot;BRIDGE_RECIP_ID&quot;,&lt;/div&gt;&lt;div&gt;&amp;nbsp; &amp;nbsp; &quot;RECIP_ADDRESS_STREET&quot;,&lt;/div&gt;&lt;div&gt;&amp;nbsp; &amp;nbsp; &quot;RECIP_ADDRESS_STREET_2&quot;,&lt;/div&gt;&lt;div&gt;&amp;nbsp; &amp;nbsp; &quot;RECIP_ADDRESS_CITY&quot;,&lt;/div&gt;&lt;div&gt;&amp;nbsp; &amp;nbsp; &quot;RECIP_ADDRESS_STATE&quot;,&lt;/div&gt;&lt;div&gt;&amp;nbsp; &amp;nbsp; &quot;RECIP_ADDRESS_ZIP&quot;,&lt;/div&gt;&lt;div&gt;&amp;nbsp; &amp;nbsp; &quot;ADMIN_DATE&quot;,&lt;/div&gt;&lt;div&gt;&amp;nbsp; &amp;nbsp; &quot;PO_CHECK&quot;,&lt;/div&gt;&lt;div&gt;&amp;nbsp; &amp;nbsp; &quot;ADDRESS_NUMBER_CHECK&quot;&lt;/div&gt;&lt;/div&gt;" style="text;html=1;align=center;verticalAlign=middle;resizable=0;points=[];autosize=1;strokeColor=none;fillColor=none;" parent="WIyWlLk6GJQsqaUBKTNV-1" vertex="1">
          <mxGeometry x="-350" y="5" width="190" height="200" as="geometry" />
        </mxCell>
        <mxCell id="4Sw3aIR59aRq2CPispGW-65" value="&lt;font color=&quot;#000000&quot;&gt;MOST_RECENT_VAX&lt;/font&gt;" style="rounded=1;whiteSpace=wrap;html=1;fontSize=20;fillColor=#e6d0de;gradientColor=#d5739d;strokeColor=#996185;" parent="WIyWlLk6GJQsqaUBKTNV-1" vertex="1">
          <mxGeometry x="-80" y="80" width="230" height="60" as="geometry" />
        </mxCell>
        <mxCell id="4Sw3aIR59aRq2CPispGW-73" value="" style="edgeStyle=orthogonalEdgeStyle;rounded=0;orthogonalLoop=1;jettySize=auto;html=1;fontSize=20;fontColor=#000000;" parent="WIyWlLk6GJQsqaUBKTNV-1" source="4Sw3aIR59aRq2CPispGW-67" target="4Sw3aIR59aRq2CPispGW-72" edge="1">
          <mxGeometry relative="1" as="geometry" />
        </mxCell>
        <mxCell id="4Sw3aIR59aRq2CPispGW-67" value="COMBINE&lt;br&gt;ADDRESS_SPATIAL&lt;br&gt;&amp;amp;&lt;br&gt;MOST_RECENT_VAX" style="whiteSpace=wrap;html=1;fillColor=#f8cecc;strokeColor=#b85450;shadow=0;strokeWidth=1;spacing=6;spacingTop=-4;" parent="WIyWlLk6GJQsqaUBKTNV-1" vertex="1">
          <mxGeometry x="140" y="1160" width="180" height="70" as="geometry" />
        </mxCell>
        <mxCell id="4Sw3aIR59aRq2CPispGW-75" value="" style="edgeStyle=orthogonalEdgeStyle;rounded=0;orthogonalLoop=1;jettySize=auto;html=1;fontSize=20;fontColor=#000000;" parent="WIyWlLk6GJQsqaUBKTNV-1" source="4Sw3aIR59aRq2CPispGW-69" target="4Sw3aIR59aRq2CPispGW-74" edge="1">
          <mxGeometry relative="1" as="geometry" />
        </mxCell>
        <mxCell id="4Sw3aIR59aRq2CPispGW-69" value="COMBINE&lt;br&gt;ADDRESS_SPATIAL&lt;br&gt;&amp;amp;&lt;br&gt;MOST_RECENT_VAX" style="whiteSpace=wrap;html=1;fillColor=#e1d5e7;strokeColor=#9673a6;shadow=0;strokeWidth=1;spacing=6;spacingTop=-4;" parent="WIyWlLk6GJQsqaUBKTNV-1" vertex="1">
          <mxGeometry x="430" y="1160" width="180" height="70" as="geometry" />
        </mxCell>
        <mxCell id="4Sw3aIR59aRq2CPispGW-72" value="INSERT INTO&amp;nbsp;&lt;br&gt;MASTER_VACCINE" style="shape=hexagon;perimeter=hexagonPerimeter2;whiteSpace=wrap;html=1;fixedSize=1;fillColor=#f8cecc;strokeColor=#b85450;shadow=0;strokeWidth=1;spacing=6;spacingTop=-4;" parent="WIyWlLk6GJQsqaUBKTNV-1" vertex="1">
          <mxGeometry x="150" y="1475" width="160" height="80" as="geometry" />
        </mxCell>
        <mxCell id="4Sw3aIR59aRq2CPispGW-74" value="INSERT INTO ESRI_MASTER_ADDRESS" style="shape=hexagon;perimeter=hexagonPerimeter2;whiteSpace=wrap;html=1;fixedSize=1;fillColor=#e1d5e7;strokeColor=#9673a6;shadow=0;strokeWidth=1;spacing=6;spacingTop=-4;" parent="WIyWlLk6GJQsqaUBKTNV-1" vertex="1">
          <mxGeometry x="440" y="1470" width="160" height="80" as="geometry" />
        </mxCell>
        <mxCell id="4Sw3aIR59aRq2CPispGW-76" value="&lt;span style=&quot;font-size: 12px;&quot;&gt;This table is dropped and recreated each time&lt;/span&gt;" style="text;html=1;align=center;verticalAlign=middle;resizable=0;points=[];autosize=1;strokeColor=none;fillColor=none;fontSize=10;" parent="WIyWlLk6GJQsqaUBKTNV-1" vertex="1">
          <mxGeometry x="550" y="690" width="260" height="30" as="geometry" />
        </mxCell>
        <mxCell id="potG2WrgUDK1nlspSH43-4" value="" style="edgeStyle=orthogonalEdgeStyle;rounded=0;orthogonalLoop=1;jettySize=auto;html=1;" edge="1" parent="WIyWlLk6GJQsqaUBKTNV-1" source="potG2WrgUDK1nlspSH43-1" target="potG2WrgUDK1nlspSH43-3">
          <mxGeometry relative="1" as="geometry" />
        </mxCell>
        <mxCell id="potG2WrgUDK1nlspSH43-1" value="address_validation" style="whiteSpace=wrap;html=1;fillColor=#d5e8d4;strokeColor=#82b366;rounded=1;glass=0;strokeWidth=1;shadow=0;" vertex="1" parent="WIyWlLk6GJQsqaUBKTNV-1">
          <mxGeometry x="320" y="360" width="120" height="60" as="geometry" />
        </mxCell>
        <mxCell id="potG2WrgUDK1nlspSH43-5" value="" style="edgeStyle=orthogonalEdgeStyle;rounded=0;orthogonalLoop=1;jettySize=auto;html=1;" edge="1" parent="WIyWlLk6GJQsqaUBKTNV-1" source="potG2WrgUDK1nlspSH43-3" target="WIyWlLk6GJQsqaUBKTNV-6">
          <mxGeometry relative="1" as="geometry" />
        </mxCell>
        <mxCell id="potG2WrgUDK1nlspSH43-6" value="" style="edgeStyle=orthogonalEdgeStyle;rounded=0;orthogonalLoop=1;jettySize=auto;html=1;" edge="1" parent="WIyWlLk6GJQsqaUBKTNV-1" source="potG2WrgUDK1nlspSH43-3" target="4Sw3aIR59aRq2CPispGW-0">
          <mxGeometry relative="1" as="geometry" />
        </mxCell>
        <mxCell id="potG2WrgUDK1nlspSH43-3" value="Begin Geocoding" style="whiteSpace=wrap;html=1;fillColor=#d5e8d4;strokeColor=#82b366;rounded=1;glass=0;strokeWidth=1;shadow=0;" vertex="1" parent="WIyWlLk6GJQsqaUBKTNV-1">
          <mxGeometry x="320" y="460" width="120" height="60" as="geometry" />
        </mxCell>
      </root>
    </mxGraphModel>
  </diagram>
</mxfile>
